<svg xmlns="http://www.w3.org/2000/svg" version="1.1" xmlns:xlink="http://www.w3.org/1999/xlink" xmlns:svgjs="http://svgjs.dev/svgjs" width="64" height="64"><svg xmlns="http://www.w3.org/2000/svg" viewBox="0 0 64 64">
    <!-- Background -->
    <rect width="64" height="64" fill="#42b983" rx="12"></rect>
    
    <!-- Binary squares pattern -->
    <g fill="#ffffff">
        <!-- Row 1 -->
        <rect x="12" y="12" width="8" height="8" opacity="0.9"></rect>
        <rect x="24" y="12" width="8" height="8" opacity="0.3"></rect>
        <rect x="36" y="12" width="8" height="8" opacity="0.9"></rect>
        <rect x="48" y="12" width="8" height="8" opacity="0.3"></rect>
        
        <!-- Row 2 -->
        <rect x="12" y="24" width="8" height="8" opacity="0.3"></rect>
        <rect x="24" y="24" width="8" height="8" opacity="0.9"></rect>
        <rect x="36" y="24" width="8" height="8" opacity="0.3"></rect>
        <rect x="48" y="24" width="8" height="8" opacity="0.9"></rect>
        
        <!-- Row 3 -->
        <rect x="12" y="36" width="8" height="8" opacity="0.9"></rect>
        <rect x="24" y="36" width="8" height="8" opacity="0.3"></rect>
        <rect x="36" y="36" width="8" height="8" opacity="0.9"></rect>
        <rect x="48" y="36" width="8" height="8" opacity="0.3"></rect>
        
        <!-- Row 4 -->
        <rect x="12" y="48" width="8" height="8" opacity="0.3"></rect>
        <rect x="24" y="48" width="8" height="8" opacity="0.9"></rect>
        <rect x="36" y="48" width="8" height="8" opacity="0.3"></rect>
        <rect x="48" y="48" width="8" height="8" opacity="0.9"></rect>
    </g>
</svg><style>@media (prefers-color-scheme: light) { :root { filter: none; } }
@media (prefers-color-scheme: dark) { :root { filter: none; } }
</style></svg>